<svg width="21" height="14" viewBox="0 0 21 14" fill="none" xmlns="http://www.w3.org/2000/svg">
<path fill-rule="evenodd" clip-rule="evenodd" d="M20.1152 2.03302C20.1152 1.39997 19.6376 0.886791 19.0485 0.886791H17.9818C17.3927 0.886791 16.9152 1.39997 16.9152 2.03302V11.967C16.9152 12.6 17.3927 13.1132 17.9818 13.1132H19.0485C19.6376 13.1132 20.1152 12.6 20.1152 11.967V2.03302ZM12.681 3.33207H13.7477C14.3368 3.33207 14.8144 3.85757 14.8144 4.50581V11.9395C14.8144 12.5877 14.3368 13.1132 13.7477 13.1132H12.681C12.0919 13.1132 11.6144 12.5877 11.6144 11.9395V4.50581C11.6144 3.85757 12.0919 3.33207 12.681 3.33207ZM8.34928 5.98112H7.28261C6.69351 5.98112 6.21594 6.51331 6.21594 7.1698V11.9245C6.21594 12.581 6.69351 13.1132 7.28261 13.1132H8.34928C8.93838 13.1132 9.41594 12.581 9.41594 11.9245V7.1698C9.41594 6.51331 8.93838 5.98112 8.34928 5.98112ZM3.04849 8.42641H1.98183C1.39272 8.42641 0.915161 8.951 0.915161 9.59811V11.9415C0.915161 12.5886 1.39272 13.1132 1.98183 13.1132H3.04849C3.6376 13.1132 4.11516 12.5886 4.11516 11.9415V9.59811C4.11516 8.951 3.6376 8.42641 3.04849 8.42641Z" fill="#1E1F20"/>
</svg>
