<svg width="18" height="14" viewBox="0 0 18 14" fill="none" xmlns="http://www.w3.org/2000/svg">
<path fill-rule="evenodd" clip-rule="evenodd" d="M8.68645 3.30213C11.1736 3.30223 13.5656 4.22432 15.3681 5.8778C15.5038 6.00545 15.7208 6.00384 15.8544 5.87419L17.1519 4.61072C17.2196 4.54496 17.2574 4.45588 17.2568 4.3632C17.2562 4.27052 17.2174 4.18187 17.1489 4.11688C12.4179 -0.257833 4.95421 -0.257833 0.223199 4.11688C0.154667 4.18183 0.115783 4.27044 0.115151 4.36313C0.114519 4.45581 0.152191 4.54491 0.219832 4.61072L1.5177 5.87419C1.65129 6.00404 1.86842 6.00565 2.00407 5.8778C3.80681 4.22421 6.19909 3.30212 8.68645 3.30213ZM8.68309 7.5224C10.0404 7.52232 11.3493 8.03406 12.3554 8.95819C12.4915 9.08934 12.7059 9.0865 12.8385 8.95178L14.1258 7.63247C14.1936 7.56327 14.2312 7.46939 14.2302 7.37184C14.2292 7.27429 14.1898 7.18121 14.1206 7.11342C11.0568 4.22257 6.31202 4.22257 3.24819 7.11342C3.17898 7.18121 3.1395 7.27434 3.13859 7.37192C3.13768 7.4695 3.17543 7.56337 3.24336 7.63247L4.53027 8.95178C4.66292 9.0865 4.87729 9.08934 5.01337 8.95819C6.01882 8.03467 7.32667 7.52297 8.68309 7.5224ZM11.2075 10.316C11.2094 10.4213 11.1724 10.5229 11.1051 10.5967L8.92841 13.0514C8.86461 13.1236 8.77761 13.1642 8.68684 13.1642C8.59608 13.1642 8.50908 13.1236 8.44528 13.0514L6.26825 10.5967C6.201 10.5228 6.164 10.4212 6.16599 10.3159C6.16799 10.2105 6.2088 10.1108 6.27878 10.0401C7.66888 8.72625 9.70481 8.72625 11.0949 10.0401C11.1648 10.1108 11.2056 10.2106 11.2075 10.316Z" fill="#1E1F20"/>
</svg>
